<svg xmlns="http://www.w3.org/2000/svg" width="1322.45" height="328.7" viewBox="0 0 1322.45 328.7">
  <path
    d="M526.66,207.46q0-11.34-9.33-17.28t-31-10.47q-21.64-4.54-36.13-11.52-31.77-15.36-31.77-44.51,0-24.43,20.6-40.85T491.4,66.42q33.87,0,54.73,16.76T567,126.65H524.57a26.15,26.15,0,0,0-9.08-20.34q-9.08-8.11-24.09-8.12-14,0-22.77,6.46a20.37,20.37,0,0,0-8.82,17.28,17.19,17.19,0,0,0,8.2,15.19q8.21,5.41,33.17,10.91t39.19,13.09q14.22,7.59,21.12,18.24t6.89,25.83q0,25.49-21.12,41.29t-55.33,15.79q-23.22,0-41.37-8.38t-28.28-23a54.5,54.5,0,0,1-10.12-31.59h41.19q.87,15,11.35,23.13t27.75,8.11q16.76,0,25.49-6.37T526.66,207.46Z"
    fill="#fff" />
  <path
    d="M688.47,262.27q-40.32,0-65.37-25.39t-25-67.65V164q0-28.27,10.91-50.53T639.6,78.82a81,81,0,0,1,44-12.4q38.56,0,59.61,24.62t21,69.64v17.11H640.82q1.92,23.39,15.62,37t34.48,13.62q29.15,0,47.48-23.57l22.86,21.82A76.3,76.3,0,0,1,731,252.93Q712,262.28,688.47,262.27Zm-5.06-161.81q-17.46,0-28.19,12.22t-13.7,34h80.82v-3.14q-1.41-21.3-11.35-32.21T683.41,100.46Z"
    fill="#fff" />
  <path
    d="M880.31,262.27q-40.32,0-65.37-25.39t-25.05-67.65V164q0-28.27,10.91-50.53t30.63-34.65a81,81,0,0,1,44-12.4Q914,66.42,935,91t21,69.64v17.11H832.65q1.92,23.39,15.63,37t34.47,13.62q29.14,0,47.48-23.57l22.86,21.82a76.3,76.3,0,0,1-30.28,26.27Q903.87,262.28,880.31,262.27Zm-5.07-161.81q-17.44,0-28.19,12.22t-13.7,34h80.82v-3.14q-1.39-21.3-11.35-32.21T875.24,100.46Z"
    fill="#fff" />
  <path d="M1053.29,205l40-135.1h43.81l-65.45,188.86h-36.83l-66-188.86h44Z" fill="#fff" />
  <path
    d="M1246.69,262.27q-40.32,0-65.37-25.39t-25-67.65V164q0-28.27,10.91-50.53t30.64-34.65a81,81,0,0,1,44-12.4q38.58,0,59.61,24.62t21,69.64v17.11H1199q1.92,23.39,15.62,37t34.48,13.62q29.14,0,47.47-23.57l22.87,21.82a76.37,76.37,0,0,1-30.28,26.27Q1270.25,262.28,1246.69,262.27Zm-5.06-161.81q-17.46,0-28.19,12.22t-13.7,34h80.81v-3.14q-1.4-21.3-11.34-32.21T1241.63,100.46Z"
    fill="#fff" />
  <path d="M81.73,22.23A165.09,165.09,0,0,0,15.49,94.62C35.5,74.1,61.68,46.4,81.73,22.23Z" fill="#fff" />
  <path
    d="M222.86,10.67A163.27,163.27,0,0,0,183,1C140.13,38.12,82.47,88.93,60,111c-4.87,4.85-7.78,7.69-7.78,7.69S55.13,115.82,60,111C80,91.14,127.76,44.89,161.32,0a164.43,164.43,0,0,0-45.14,7.12C89.35,25.81,44.36,67.75,14.8,96.17A163.26,163.26,0,0,0,3.45,130.7C62.59,78.44,89.92,52.69,109,33.91c4.87-4.85,7.78-7.7,7.78-7.7s-2.88,2.88-7.78,7.7C87.09,55.74,28.3,118.8.25,155.37c-.16,3-.25,5.94-.25,8.94a166.22,166.22,0,0,0,2.25,27.05c50.33-44.74,90.22-80.84,110.14-100.43,4.87-4.85,7.78-7.69,7.78-7.69s-2.88,2.87-7.78,7.69C91.17,112.06,32,172,6.13,208.75a154.43,154.43,0,0,0,19,42.9c29-25,57.55-50.54,76.78-69.2a64.86,64.86,0,0,1,30.26-74.64l1.72-1.69C151.2,88.9,193.7,45.9,222.86,10.67Z"
    fill="#fff" />
  <path
    d="M270,38.4c-24.92,22.82-48.61,45.86-60.39,57.45-4.87,4.85-7.78,7.7-7.78,7.7s2.88-2.88,7.78-7.7c11.67-11.61,31.67-37.39,54.46-62.19-10.5-8.44-17.11-12.31-29.51-18-54.12,47.16-82.75,72.81-100.68,90.45l-1.68,1.66A65.06,65.06,0,1,1,102,182.71c-19.11,19.34-47.57,50.92-70.65,78.09a154.63,154.63,0,0,0,29.44,31.12c24.3-22.71,42.68-40.32,50.64-48a15.83,15.83,0,0,0,2.92-3.58,14.09,14.09,0,0,1-2.92,3.58c-7.7,7.64-24.93,29.5-43.35,53.58A164.36,164.36,0,0,0,270,38.4Z"
    fill="#fff" />
  <circle cx="164.39" cy="164.08" r="37.67" fill="#fff" /></svg>