<svg xmlns="http://www.w3.org/2000/svg" width="336.2" height="106.26" viewBox="0 0 336.2 106.26">
  <path
    d="M155.61,63.43a4.6,4.6,0,0,0-2.23-4.13,23.88,23.88,0,0,0-7.4-2.5,38.09,38.09,0,0,1-8.64-2.75q-7.59-3.67-7.59-10.64a12,12,0,0,1,4.92-9.76q4.92-3.91,12.52-3.92,8.09,0,13.07,4a12.71,12.71,0,0,1,5,10.38H155.11a6.25,6.25,0,0,0-2.17-4.86,8.3,8.3,0,0,0-5.75-1.94,9,9,0,0,0-5.45,1.55,4.87,4.87,0,0,0-2.1,4.13,4.09,4.09,0,0,0,2,3.62c1.3.87,4,1.74,7.92,2.61a37.72,37.72,0,0,1,9.37,3.13,13.27,13.27,0,0,1,5,4.36,11.08,11.08,0,0,1,1.65,6.17,11.73,11.73,0,0,1-5.05,9.86q-5,3.78-13.22,3.78a23.37,23.37,0,0,1-9.88-2A16.23,16.23,0,0,1,130.67,69a13,13,0,0,1-2.42-7.55h9.84A7.17,7.17,0,0,0,140.8,67a10.57,10.57,0,0,0,6.64,1.94,10.31,10.31,0,0,0,6.09-1.52A4.73,4.73,0,0,0,155.61,63.43Z"
    fill="#fff" />
  <path
    d="M191.88,76.53q-9.63,0-15.62-6.07t-6-16.16V53.05A27.07,27.07,0,0,1,172.89,41a19.8,19.8,0,0,1,7.32-8.28,19.37,19.37,0,0,1,10.51-3q9.21,0,14.24,5.88t5,16.65v4.08H180.5a13.5,13.5,0,0,0,3.73,8.84,11.21,11.21,0,0,0,8.24,3.26,13.73,13.73,0,0,0,11.34-5.63L209.28,68A18.26,18.26,0,0,1,202,74.3,22.63,22.63,0,0,1,191.88,76.53Zm-1.21-38.66a8.51,8.51,0,0,0-6.73,2.92,15.06,15.06,0,0,0-3.27,8.13H200v-.75c-.23-3.39-1.13-6-2.72-7.7A8.48,8.48,0,0,0,190.67,37.87Z"
    fill="#fff" />
  <path
    d="M235.33,76.53q-9.63,0-15.62-6.07t-6-16.16V53.05A27.21,27.21,0,0,1,216.33,41a19.94,19.94,0,0,1,7.32-8.28,19.42,19.42,0,0,1,10.51-3q9.22,0,14.25,5.88t5,16.65v4.08H224a13.5,13.5,0,0,0,3.73,8.84,11.21,11.21,0,0,0,8.24,3.26,13.73,13.73,0,0,0,11.34-5.63L252.72,68a18.23,18.23,0,0,1-7.23,6.28A22.63,22.63,0,0,1,235.33,76.53Zm-1.21-38.66a8.51,8.51,0,0,0-6.73,2.92,15.07,15.07,0,0,0-3.28,8.13h19.31v-.75q-.33-5.09-2.71-7.7A8.48,8.48,0,0,0,234.12,37.87Z"
    fill="#fff" />
  <path d="M274.27,62.85l9.56-32.28h10.46L278.65,75.69h-8.8L254.09,30.57H264.6Z" fill="#fff" />
  <path
    d="M318.1,76.53q-9.64,0-15.62-6.07t-6-16.16V53.05A27.07,27.07,0,0,1,299.1,41a19.94,19.94,0,0,1,7.32-8.28,19.37,19.37,0,0,1,10.51-3q9.21,0,14.24,5.88t5,16.65v4.08H306.71a13.55,13.55,0,0,0,3.73,8.84,11.22,11.22,0,0,0,8.24,3.26A13.75,13.75,0,0,0,330,62.81L335.49,68a18.26,18.26,0,0,1-7.24,6.28A22.59,22.59,0,0,1,318.1,76.53Zm-1.21-38.66a8.53,8.53,0,0,0-6.74,2.92,15.06,15.06,0,0,0-3.27,8.13h19.31v-.75c-.22-3.39-1.13-6-2.71-7.7A8.5,8.5,0,0,0,316.89,37.87Z"
    fill="#fff" />
  <path
    d="M54.21,36.48V69.3A10.25,10.25,0,0,1,47.28,79a8.1,8.1,0,0,0,8-8.09V38.08a10.26,10.26,0,0,1,6.92-9.69A8.1,8.1,0,0,0,54.21,36.48Z"
    fill="#fff" />
  <path
    d="M52.06,69.3V36.48a10.24,10.24,0,0,1,5.45-9A8.1,8.1,0,0,0,51,35.36V68.19a10.25,10.25,0,0,1-5.46,9A8.12,8.12,0,0,0,52.06,69.3Z"
    fill="#fff" />
  <path
    d="M0,0V106.26H106.26V0ZM75.75,80.08H73.6v-42a8,8,0,0,0-1.53-4.72,10.09,10.09,0,0,1,.49,3.12v42H70.41v-42a8.06,8.06,0,0,0-1.88-5.18,10.2,10.2,0,0,1,.84,4.06v42H67.22v-42a8.07,8.07,0,0,0-2-5.37,8.1,8.1,0,0,0-7.77,8.09V70.9a10.25,10.25,0,0,1-16.34,8.24A10.32,10.32,0,0,1,39,78.28a10.27,10.27,0,0,1-8.5-10.09v-42h2.15v42a8,8,0,0,0,1.89,5.18,10.05,10.05,0,0,1-.85-4.07v-42h2.15v42A8,8,0,0,0,37.38,74a10.09,10.09,0,0,1-.49-3.12v-42h2.16v42a8.07,8.07,0,0,0,2.05,5.37,8.1,8.1,0,0,0,7.76-8.08V35.36a10.25,10.25,0,0,1,15.21-9,10.27,10.27,0,0,1,4.32,1.85,10.28,10.28,0,0,1,7.36,9.84Z"
    fill="#fff" />
</svg>